<?xml version="1.0" standalone="no"?>
<!DOCTYPE svg PUBLIC "-//W3C//DTD SVG 20010904//EN"
 "http://www.w3.org/TR/2001/REC-SVG-20010904/DTD/svg10.dtd">
<svg version="1.0" xmlns="http://www.w3.org/2000/svg"
 width="430.000000pt" height="133.000000pt" viewBox="0 0 430.000000 133.000000"
 preserveAspectRatio="xMidYMid meet">

<g transform="translate(0.000000,133.000000) scale(0.100000,-0.100000)"
fill="#000000" stroke="none">
<path d="M2594 1195 c-15 -37 4 -132 40 -203 42 -84 44 -108 18 -307 -17 -130
-17 -130 -43 -127 -23 3 -27 -3 -43 -55 -25 -79 -55 -135 -69 -130 -16 5 -21
112 -8 179 6 38 6 57 -2 67 -17 20 -50 30 -68 20 -11 -6 -22 -1 -37 16 -41 47
-131 27 -170 -37 -45 -73 -57 -209 -27 -286 20 -48 66 -92 98 -92 32 0 80 33
97 66 8 16 15 31 17 33 1 2 14 -6 29 -18 68 -54 130 -3 179 147 9 29 18 52 20
50 1 -2 -3 -43 -11 -93 -29 -194 -15 -245 57 -206 60 32 72 81 77 329 l4 212
50 -72 c211 -306 442 -508 581 -508 131 0 217 96 263 295 43 189 10 680 -46
680 -33 0 -43 -71 -50 -375 -8 -298 -12 -335 -51 -412 -32 -62 -64 -81 -134
-76 -147 9 -311 147 -479 403 -98 148 -129 206 -200 369 -60 136 -80 164 -92
131z m-223 -612 c18 -46 6 -173 -22 -229 -29 -59 -63 -71 -79 -29 -13 35 -13
150 1 200 21 78 79 111 100 58z"/>
<path d="M164 1114 c-15 -34 -17 -77 -17 -349 0 -277 12 -515 29 -560 24 -61
64 72 71 233 l6 122 95 71 95 70 28 -48 c36 -62 82 -109 247 -251 167 -143
226 -182 275 -182 45 0 67 8 67 25 0 13 -316 281 -488 415 -65 50 -80 66 -70
75 7 7 63 43 123 80 285 177 390 257 383 292 -4 21 -35 28 -85 18 -62 -11
-379 -237 -602 -428 -30 -26 -57 -47 -60 -47 -3 0 -4 94 -3 209 l4 208 -40 44
-40 43 -18 -40z"/>
<path d="M1870 945 c-7 -9 -16 -85 -22 -207 -11 -205 -17 -229 -75 -306 -39
-52 -45 -42 -41 66 l3 97 -28 3 c-41 5 -75 -22 -103 -81 l-25 -52 7 70 c11
109 10 117 -8 128 -25 17 -71 -3 -79 -33 -4 -14 -12 -51 -18 -83 -12 -69 -59
-177 -76 -177 -19 0 -24 55 -13 153 11 103 5 117 -52 117 -25 0 -43 7 -56 21
-16 18 -27 20 -69 16 -42 -4 -54 -10 -81 -41 -41 -47 -59 -112 -58 -206 0 -57
6 -85 22 -117 21 -41 64 -73 97 -73 31 0 71 29 90 64 23 42 25 43 48 16 11
-13 29 -20 51 -20 34 0 57 19 93 76 10 17 12 15 12 -17 1 -39 13 -49 56 -49
30 0 39 14 54 80 6 30 18 66 25 80 13 23 14 22 21 -34 10 -77 36 -104 95 -96
8 1 31 17 51 36 l36 35 -5 -75 -5 -75 28 -7 c33 -8 59 5 63 32 7 40 12 48 24
36 7 -7 29 -12 49 -12 119 0 184 224 95 327 -18 21 -32 27 -62 27 -22 0 -47
-4 -56 -8 -16 -7 -18 -3 -18 32 0 22 5 86 10 142 12 113 7 130 -40 130 -15 0
-33 -7 -40 -15z m146 -336 c10 -17 6 -133 -6 -177 -5 -22 -18 -46 -28 -55 -26
-24 -52 -2 -59 49 -12 90 61 234 93 183z m-735 -41 c21 -79 -9 -219 -54 -257
-52 -42 -85 77 -54 196 18 69 42 103 72 103 20 0 26 -7 36 -42z"/>
<path d="M3836 670 c-42 -37 -65 -93 -73 -175 -7 -76 8 -126 48 -160 36 -30
102 -34 138 -9 21 15 23 15 19 -1 -2 -11 -23 -24 -61 -35 -32 -10 -76 -30 -97
-44 -102 -67 -52 -194 72 -183 88 8 140 64 169 182 7 31 25 65 46 88 40 44
103 170 103 204 0 43 -30 25 -56 -33 -13 -31 -36 -72 -50 -92 l-26 -37 5 121
c6 130 2 144 -41 144 -14 0 -36 13 -52 30 -39 42 -96 42 -144 0z m121 -47 c38
-58 8 -240 -43 -260 -23 -9 -51 27 -59 77 -13 74 32 210 70 210 8 0 23 -12 32
-27z m-7 -388 c0 -9 -9 -33 -20 -55 -30 -58 -82 -80 -95 -40 -8 27 16 65 58
90 39 24 57 25 57 5z"/>
</g>
</svg>
